<?xml version="1.0"?>
<svg xmlns="http://www.w3.org/2000/svg" xmlns:xlink="http://www.w3.org/1999/xlink" version="1.1" id="Capa_1" x="0px" y="0px" viewBox="0 0 507.775 507.775" style="enable-background:new 0 0 507.775 507.775;" xml:space="preserve" width="512px" height="512px"><g><g>
	<path d="M314.077,419.512c9.586-8.855,19.749-19.029,29.946-30.51c25.034-28.187,44.995-58.385,59.327-89.754   c17.978-39.348,27.093-80.628,27.093-122.694C430.442,79.202,351.24,0,253.888,0S77.333,79.202,77.333,176.554   c0,39.343,9.311,79.084,27.672,118.12c1.763,3.748,6.231,5.357,9.979,3.594c3.748-1.763,5.357-6.231,3.594-9.979   c-17.416-37.023-26.246-74.616-26.246-111.735C92.333,87.473,164.806,15,253.888,15c89.081,0,161.555,72.473,161.555,161.554   c0,39.808-8.62,78.905-25.62,116.205c-13.66,29.971-32.737,58.882-56.702,85.929c-33.396,37.69-67.203,61.309-78.835,68.917   c-16.312-12.7-78.497-63.53-120.778-131.402c-2.189-3.516-6.816-4.59-10.331-2.4c-3.516,2.19-4.591,6.815-2.4,10.331   c23.772,38.161,53.065,70.667,77.706,94.604c-26.425,2.466-50.096,6.754-67.778,12.357c-24.94,7.902-37.603,18.173-37.636,30.528   c-0.039,14.394,16.952,25.982,50.5,34.44c29.515,7.441,68.65,11.6,110.197,11.709c0.563,0.001,1.121,0.002,1.683,0.002   c40.918,0,79.422-3.943,108.576-11.13c33.593-8.281,50.645-19.778,50.684-34.173C414.781,434.435,350.198,423.454,314.077,419.512z    M360.434,482.082c-28.4,7.001-66.244,10.803-106.628,10.692c-40.359-0.106-78.207-4.103-106.569-11.254   c-32.153-8.106-39.175-17.081-39.167-19.854c0.02-7.501,31.826-24.169,105.165-29.064c20.233,18.39,34.864,29.191,36.226,30.188   c1.313,0.961,2.869,1.447,4.429,1.447c1.322,0,2.648-0.349,3.833-1.053c1.107-0.658,17.998-10.804,40.923-30.068   c77.1,6.115,101.079,23.595,101.064,29.319C399.699,465.207,392.63,474.145,360.434,482.082z" data-original="#000000" class="active-path" data-old_color="#000000" fill="#08AE4F"/>
	<path d="M253.888,115.101c27.042,0,50.356,18.329,56.696,44.573c0.972,4.026,5.023,6.502,9.051,5.529   c4.026-0.973,6.502-5.025,5.529-9.052c-7.972-33.002-37.282-56.051-71.276-56.051c-40.431,0-73.325,32.893-73.325,73.325   c0,40.431,32.894,73.324,73.325,73.324c33.338,0,62.509-22.499,70.939-54.713c1.049-4.007-1.35-8.106-5.357-9.154   c-4.009-1.05-8.106,1.349-9.154,5.357c-6.704,25.618-29.908,43.51-56.428,43.51c-32.16,0-58.325-26.164-58.325-58.324   C195.563,141.265,221.728,115.101,253.888,115.101z" data-original="#000000" class="active-path" data-old_color="#000000" fill="#08AE4F"/>
</g></g> </svg>
